<?xml version="1.0" encoding="UTF-8"?>
<svg width="268px" height="164px" viewBox="0 0 268 164" version="1.1" xmlns="http://www.w3.org/2000/svg" xmlns:xlink="http://www.w3.org/1999/xlink">
    <!-- Generator: Sketch 49.1 (51147) - http://www.bohemiancoding.com/sketch -->
    <title>aalto-logo</title>
    <desc>Created with Sketch.</desc>
    <defs></defs>
    <g id="Page-1" stroke="none" stroke-width="1" fill="none" fill-rule="evenodd">
        <g id="aalto-logo" fill-rule="nonzero">
            <path d="M161.52708,163.96 L104.9888,4.298 L56.8178,4.298 L0.2768,163.96 L40.4037,163.96 L50.18249,135.7085 L111.62429,135.7085 L121.40308,163.96 L161.52708,163.96 Z M100.5915,103.8424 L61.2113,103.8424 L80.9028,46.9584 L100.5915,103.8424 Z" id="Shape" fill="#1F1A17"></path>
            <path d="M267.724,48.305 C267.724,14.0213 238.9101,0.285 206.3667,0.285 C166.1791,0.285 147.9115,26.3744 147.9115,52.2454 L147.9115,54.01896 L183.6686,54.01896 C183.6686,39.76876 193.7295,32.41326 206.2765,32.41326 C216.13603,32.41326 228.1966,36.87328 228.1966,49.65196 C228.1966,58.24806 224.17546,62.63776 211.5041,70.79116 C194.6814,81.61866 191.0887,92.16216 191.0887,111.44526 L191.0887,115.77418 L226.4202,115.77418 L226.4202,115.486345 C226.4202,97.975945 231.31624,96.069345 244.2118,86.913745 C260.1776,75.908545 267.724,64.842645 267.724,48.304945 L267.724,48.305 Z M226.632,128.4153 L191.0887,128.4153 L191.0887,163.9586 L226.632,163.9586 L226.632,128.4153 Z" id="Shape" fill="#FCDB00"></path>
        </g>
    </g>
</svg>